[Header]
FileType HTR
DataType HTRS
FileVersion 1
NumSegments 64
NumFrames 3
DataFrameRate 24
EulerRotationOrder ZYX
CalibrationUnits mm
RotationUnits Degrees
GlobalAxisofGravity Y
BoneLengthAxis Y
ScaleFactor 1.0
[SegmentNames&Hierarchy]
Hips	GLOBAL
Spine	Hips
Spine1	Spine
Spine2	Spine1
Neck	Spine2
Head	Neck
LeftEye	Head
RightEye	Head
LeftShoulder	Spine2
LeftArm	LeftShoulder
LeftForeArm	LeftArm
LeftHand	LeftForeArm
LeftHandThumb1	LeftHand
LeftHandThumb2	LeftHandThumb1
LeftHandThumb3	LeftHandThumb2
LeftHandThumb4	LeftHandThumb3
LeftHandIndex1	LeftHand
LeftHandIndex2	LeftHandIndex1
LeftHandIndex3	LeftHandIndex2
LeftHandIndex4	LeftHandIndex3
LeftHandMiddle1	LeftHand
LeftHandMiddle2	LeftHandMiddle1
LeftHandMiddle3	LeftHandMiddle2
LeftHandMiddle4	LeftHandMiddle3
LeftHandRing1	LeftHand
LeftHandRing2	LeftHandRing1
LeftHandRing3	LeftHandRing2
LeftHandRing4	LeftHandRing3
LeftHandPinky1	LeftHand
LeftHandPinky2	LeftHandPinky1
LeftHandPinky3	LeftHandPinky2
LeftHandPinky4	LeftHandPinky3
RightShoulder	Spine2
RightArm	RightShoulder
RightForeArm	RightArm
RightHand	RightForeArm
RightHandPinky1	RightHand
RightHandPinky2	RightHandPinky1
RightHandPinky3	RightHandPinky2
RightHandPinky4	RightHandPinky3
RightHandRing1	RightHand
RightHandRing2	RightHandRing1
RightHandRing3	RightHandRing2
RightHandRing4	RightHandRing3
RightHandMiddle1	RightHand
RightHandMiddle2	RightHandMiddle1
RightHandMiddle3	RightHandMiddle2
RightHandMiddle4	RightHandMiddle3
RightHandIndex1	RightHand
RightHandIndex2	RightHandIndex1
RightHandIndex3	RightHandIndex2
RightHandIndex4	RightHandIndex3
RightHandThumb1	RightHand
RightHandThumb2	RightHandThumb1
RightHandThumb3	RightHandThumb2
RightHandThumb4	RightHandThumb3
LeftUpLeg	Hips
LeftLeg	LeftUpLeg
LeftFoot	LeftLeg
LeftToeBase	LeftFoot
RightUpLeg	Hips
RightLeg	RightUpLeg
RightFoot	RightLeg
RightToeBase	RightFoot
[BasePosition]
Hips	0	0	0	0	0	0	1
Spine	0	0	0	0	0	0	1
Spine1	0	0	0	0	0	0	1
Spine2	0	0	0	0	0	0	1
Neck	0	0	0	0	0	0	1
Head	0	0	0	0	0	0	1
LeftEye	0	0	0	0	0	0	1
RightEye	0	0	0	0	0	0	1
LeftShoulder	0	0	0	0	0	0	1
LeftArm	0	0	0	0	0	0	1
LeftForeArm	0	0	0	0	0	0	1
LeftHand	0	0	0	0	0	0	1
LeftHandThumb1	0	0	0	0	0	0	1
LeftHandThumb2	0	0	0	0	0	0	1
LeftHandThumb3	0	0	0	0	0	0	1
LeftHandThumb4	0	0	0	0	0	0	1
LeftHandIndex1	0	0	0	0	0	0	1
LeftHandIndex2	0	0	0	0	0	0	1
LeftHandIndex3	0	0	0	0	0	0	1
LeftHandIndex4	0	0	0	0	0	0	1
LeftHandMiddle1	0	0	0	0	0	0	1
LeftHandMiddle2	0	0	0	0	0	0	1
LeftHandMiddle3	0	0	0	0	0	0	1
LeftHandMiddle4	0	0	0	0	0	0	1
LeftHandRing1	0	0	0	0	0	0	1
LeftHandRing2	0	0	0	0	0	0	1
LeftHandRing3	0	0	0	0	0	0	1
LeftHandRing4	0	0	0	0	0	0	1
LeftHandPinky1	0	0	0	0	0	0	1
LeftHandPinky2	0	0	0	0	0	0	1
LeftHandPinky3	0	0	0	0	0	0	1
LeftHandPinky4	0	0	0	0	0	0	1
RightShoulder	0	0	0	0	0	0	1
RightArm	0	0	0	0	0	0	1
RightForeArm	0	0	0	0	0	0	1
RightHand	0	0	0	0	0	0	1
RightHandPinky1	0	0	0	0	0	0	1
RightHandPinky2	0	0	0	0	0	0	1
RightHandPinky3	0	0	0	0	0	0	1
RightHandPinky4	0	0	0	0	0	0	1
RightHandRing1	0	0	0	0	0	0	1
RightHandRing2	0	0	0	0	0	0	1
RightHandRing3	0	0	0	0	0	0	1
RightHandRing4	0	0	0	0	0	0	1
RightHandMiddle1	0	0	0	0	0	0	1
RightHandMiddle2	0	0	0	0	0	0	1
RightHandMiddle3	0	0	0	0	0	0	1
RightHandMiddle4	0	0	0	0	0	0	1
RightHandIndex1	0	0	0	0	0	0	1
RightHandIndex2	0	0	0	0	0	0	1
RightHandIndex3	0	0	0	0	0	0	1
RightHandIndex4	0	0	0	0	0	0	1
RightHandThumb1	0	0	0	0	0	0	1
RightHandThumb2	0	0	0	0	0	0	1
RightHandThumb3	0	0	0	0	0	0	1
RightHandThumb4	0	0	0	0	0	0	1
LeftUpLeg	0	0	0	0	0	0	1
LeftLeg	0	0	0	0	0	0	1
LeftFoot	0	0	0	0	0	0	1
LeftToeBase	0	0	0	0	0	0	1
RightUpLeg	0	0	0	0	0	0	1
RightLeg	0	0	0	0	0	0	1
RightFoot	0	0	0	0	0	0	1
RightToeBase	0	0	0	0	0	0	1
[Hips]
6	416.154541	997.4420166	-18.05932426	-7.563153744	78.86534119	-11.36831284	1.0
7	502.0723877	982.6304932	-20.79166222	-3.498188734	77.74291229	-7.498579979	1.0
8	593.4436646	973.1257324	-23.94122124	0.5011407733	77.40054321	-2.693864346	1.0
[Spine]
6	0	101.8159943	1.315000057	2.616505384	-2.841262817	2.315484047	1.0
7	0	101.8159943	1.315000057	2.29634285	-2.023998737	1.905849814	1.0
8	0	101.8159943	1.315000057	2.153200388	-2.072215557	0.8803787231	1.0
[Spine1]
6	0	100.8349991	-10.00800037	0.7041689157	-14.08015442	1.969056368	1.0
7	0	100.8349991	-10.00800037	0.5728257298	-13.81789684	1.96350503	1.0
8	0	100.8349991	-10.00800037	0.6778083444	-13.78875256	1.792261362	1.0
[Spine2]
6	0	91	-13.73399925	0.4491387606	-14.03195572	2.320998669	1.0
7	0	91	-13.73399925	0.317170769	-13.77064705	2.314213753	1.0
8	0	91	-13.73399925	0.4239427149	-13.7455349	2.146813631	1.0
[Neck]
6	0	166.7169952	-25.16200066	4.134823322	-6.512776852	-0.3498280942	1.0
7	0	166.7169952	-25.16200066	3.975346327	-6.545846462	-0.4516188502	1.0
8	0	166.7169952	-25.16200066	4.001280308	-6.568171978	0.01642241329	1.0
[Head]
6	0	96.17900085	16.84999847	-16.68045807	-39.52053833	9.068080902	1.0
7	0	96.17900085	16.84999847	-16.33738708	-39.41989517	8.483617783	1.0
8	0	96.17900085	16.84999847	-15.75867939	-39.12177658	8.433053017	1.0
[LeftEye]
6	30.6760006	64.09500122	92.83599854	0	0	0	1.0
7	30.6760006	64.09500122	92.83599854	0	0	0	1.0
8	30.6760006	64.09500122	92.83599854	0	0	0	1.0
[RightEye]
6	-30.6760006	64.09500122	92.83499908	0	0	0	1.0
7	-30.6760006	64.09500122	92.83499908	0	0	0	1.0
8	-30.6760006	64.09500122	92.83499908	0	0	0	1.0
[LeftShoulder]
6	45.70400238	109.4599991	-26.28000069	5.895377159	-16.35123444	-14.90392303	1.0
7	45.70400238	109.4599991	-26.28000069	5.379650593	-14.8418293	-13.11488533	1.0
8	45.70400238	109.4599991	-26.28000069	5.14124155	-14.89278316	-11.79418373	1.0
[LeftArm]
6	105.923996	-5.24600029	-22.32099915	-24.61346817	22.09762192	-71.55158997	1.0
7	105.923996	-5.24600029	-22.32099915	-28.39825058	26.6249752	-75.48319244	1.0
8	105.923996	-5.24600029	-22.32099915	-32.35798264	28.39232254	-79.14400482	1.0
[LeftForeArm]
6	278.414978	-0.0009999999311	0	-1.849222826e-06	-3.420709133	-0.0001907445112	1.0
7	278.414978	-0.0009999999311	0	-4.016637376e-06	-3.870244026	-0.0001999247033	1.0
8	278.414978	-0.0009999999311	0	-1.807622539e-05	-2.606939554	-0.0001990464807	1.0
[LeftHand]
6	283.2879944	0	0	23.74636459	-10.33651066	4.279761314	1.0
7	283.2879944	0	0	19.28195	-1.620753288	1.925774574	1.0
8	283.2879944	0	0	17.68499565	4.727705956	0.5188579559	1.0
[LeftHandThumb1]
6	24.6609993	-15.75	26.8239994	7.313545227	0.8636325598	0.755587101	1.0
7	24.6609993	-15.75	26.8239994	7.334887981	0.915050149	0.7806643248	1.0
8	24.6609993	-15.75	26.8239994	7.595992565	1.534818053	1.075377584	1.0
[LeftHandThumb2]
6	32.29800034	-18.64699936	18.64699936	10.2374258	13.67991829	14.30067444	1.0
7	32.29800034	-18.64699936	18.64699936	10.52522755	14.15435123	14.20875645	1.0
8	32.29800034	-18.64699936	18.64699936	13.08764744	14.90653992	14.0644865	1.0
[LeftHandThumb3]
6	26.52600098	-15.31499958	15.31499958	3.566335917	2.867549896	0.1431453228	1.0
7	26.52600098	-15.31499958	15.31499958	3.740075111	2.51879406	0.1770211309	1.0
8	26.52600098	-15.31499958	15.31499958	4.310447216	2.040745735	0.1972167343	1.0
[LeftHandThumb4]
6	19.54599953	-11.28499985	11.28499985	0	0	0	1.0
7	19.54599953	-11.28499985	11.28499985	0	0	0	1.0
8	19.54599953	-11.28499985	11.28499985	0	0	0	1.0
[LeftHandIndex1]
6	91.09299469	-5.170999527	22.60099792	0.4075806141	1.614306688	1.952340126	1.0
7	91.09299469	-5.170999527	22.60099792	0.3171090484	1.960657239	0.8163970113	1.0
8	91.09299469	-5.170999527	22.60099792	0.01431645174	2.85132122	-3.603293896	1.0
[LeftHandIndex2]
6	36.76399994	0	0	0.01247861423	0.8337122798	-0.4190285504	1.0
7	36.76399994	0	0	0.008558930829	0.8580939174	-0.6645073891	1.0
8	36.76399994	0	0	-0.0216899123	1.041401744	-2.489202261	1.0
[LeftHandIndex3]
6	28.83100128	0	0	-0.01924203709	-0.1447594166	-0.6694206595	1.0
7	28.83100128	0	0	-0.0199375879	-0.1192034557	-0.9235454798	1.0
8	28.83100128	0	0	-0.02619522065	0.07239982486	-2.829384804	1.0
[LeftHandIndex4]
6	23.92700005	0	0	0	0	0	1.0
7	23.92700005	0	0	0	0	0	1.0
8	23.92700005	0	0	0	0	0	1.0
[LeftHandMiddle1]
6	95.33399963	0	0	-0.6200965643	8.483107567	-8.035247803	1.0
7	95.33399963	0	0	-0.7280998826	8.670489311	-8.982880592	1.0
8	95.33399963	0	0	-1.275051117	9.35406208	-13.74986458	1.0
[LeftHandMiddle2]
6	36.98199844	0	0	0.0353275016	0.8193646669	0.04377691448	1.0
7	36.98199844	0	0	0.0310374964	0.8414137959	-0.1843557358	1.0
8	36.98199844	0	0	-0.01958825625	1.107751489	-2.856846809	1.0
[LeftHandMiddle3]
6	29.50900078	0	0	-0.02485170215	-0.429487437	7.104232311	1.0
7	29.50900078	0	0	-0.02208706178	-0.3954757452	6.761482716	1.0
8	29.50900078	0	0	-0.001439685933	-0.1178338677	3.964737654	1.0
[LeftHandMiddle4]
6	28.3390007	0	0	0	0	0	1.0
7	28.3390007	0	0	0	0	0	1.0
8	28.3390007	0	0	0	0	0	1.0
[LeftHandRing1]
6	91.04499817	-0.4390000105	-18.65100098	-1.312960505	12.52281952	-12.61956787	1.0
7	91.04499817	-0.4390000105	-18.65100098	-1.452623844	12.66561317	-13.76714993	1.0
8	91.04499817	-0.4390000105	-18.65100098	-2.110301018	13.10508919	-19.15306473	1.0
[LeftHandRing2]
6	31.54000092	0	0	0.002768906299	0.3401875496	0.02292639762	1.0
7	31.54000092	0	0	0.002683150349	0.3537379205	-0.1164727807	1.0
8	31.54000092	0	0	0.005945145618	0.636233151	-2.964001417	1.0
[LeftHandRing3]
6	29.37700081	0	0	-0.08349464089	-0.7665024996	7.721558571	1.0
7	29.37700081	0	0	-0.07739788294	-0.7363080382	7.412223339	1.0
8	29.37700081	0	0	-0.01217974443	-0.4125771821	4.095641136	1.0
[LeftHandRing4]
6	26.47500038	0	0	0	0	0	1.0
7	26.47500038	0	0	0	0	0	1.0
8	26.47500038	0	0	0	0	0	1.0
[LeftHandPinky1]
6	80.77799988	-4.887000084	-38.06099701	-1.441233635	15.72869492	-13.17619705	1.0
7	80.77799988	-4.887000084	-38.06099701	-1.486080289	16.08254814	-14.06808472	1.0
8	80.77799988	-4.887000084	-38.06099701	-2.230471849	16.91887093	-19.47079086	1.0
[LeftHandPinky2]
6	36	0	0	-0.002150805201	-0.1274627149	-0.5041912198	1.0
7	36	0	0	-0.004639023915	-0.1067440137	-0.7126315236	1.0
8	36	0	0	-0.04309556633	0.2748348117	-4.544418812	1.0
[LeftHandPinky3]
6	21.14200211	0	0	-0.05170283467	-0.5011799335	13.58809376	1.0
7	21.14200211	0	0	-0.0486124903	-0.4719762504	13.29545975	1.0
8	21.14200211	0	0	-0.005938405637	-0.09907522053	9.553711891	1.0
[LeftHandPinky4]
6	19.75699997	0	0	0	0	0	1.0
7	19.75699997	0	0	0	0	0	1.0
8	19.75699997	0	0	0	0	0	1.0
[RightShoulder]
6	-45.70000076	109.4620056	-26.28000069	3.776770115	6.069011688	4.50584507	1.0
7	-45.70000076	109.4620056	-26.28000069	3.720875263	6.826902866	3.721077681	1.0
8	-45.70000076	109.4620056	-26.28000069	3.756735802	6.372742176	4.102366924	1.0
[RightArm]
6	-105.9280014	-5.248000145	-22.32099915	26.1011219	26.6703434	56.52985382	1.0
7	-105.9280014	-5.248000145	-22.32099915	23.16658783	30.65384483	54.78725052	1.0
8	-105.9280014	-5.248000145	-22.32099915	22.48591423	31.74956894	54.52429962	1.0
[RightForeArm]
6	-278.414978	0	0	-2.329745939e-06	36.12314606	-9.106649941e-07	1.0
7	-278.414978	0	0	-3.60836134e-06	39.40597153	-6.716221378e-06	1.0
8	-278.414978	0	0	1.046518378e-06	41.33330154	1.49878133e-05	1.0
[RightHand]
6	-283.2879944	0	0.0009999999311	4.68510437	2.126135826	3.461532593	1.0
7	-283.2879944	0	0.0009999999311	8.223653793	3.568505764	0.03813671321	1.0
8	-283.2879944	0	0.0009999999311	10.8882637	7.580767632	-4.482006073	1.0
[RightHandPinky1]
6	-80.76699829	-4.885000229	-38.06000137	-3.872527122	-13.25585938	33.18059158	1.0
7	-80.76699829	-4.885000229	-38.06000137	-3.73054266	-12.57585716	31.89927864	1.0
8	-80.76699829	-4.885000229	-38.06000137	-3.582861185	-12.21946144	30.05754471	1.0
[RightHandPinky2]
6	-36	0	0.0009999999311	-0.1409518868	-0.7921345234	9.824864388	1.0
7	-36	0	0.0009999999311	-0.07883992046	-0.5044376254	6.882847309	1.0
8	-36	0	0.0009999999311	-0.03830702975	-0.2378595471	4.188294411	1.0
[RightHandPinky3]
6	-21.14200211	0	0	-0.1460937858	2.434325457	-2.575638771	1.0
7	-21.14200211	0	0	-0.1379909813	2.724685907	-5.471350193	1.0
8	-21.14200211	0	0	-0.1464579701	2.983595371	-8.054080963	1.0
[RightHandPinky4]
6	-19.75699997	0	0	0	0	0	1.0
7	-19.75699997	0	0	0	0	0	1.0
8	-19.75699997	0	0	0	0	0	1.0
[RightHandRing1]
6	-91.03599548	-0.4390000105	-18.65100098	-2.979048729	-11.14401436	26.77039337	1.0
7	-91.03599548	-0.4390000105	-18.65100098	-2.855698109	-10.69205666	25.98655319	1.0
8	-91.03599548	-0.4390000105	-18.65100098	-2.68419385	-10.52126312	24.71510124	1.0
[RightHandRing2]
6	-31.54000092	0	0	-0.0008644433692	-0.8357766867	4.976815224	1.0
7	-31.54000092	0	0	0.005010076798	-0.6880736947	3.486895084	1.0
8	-31.54000092	0	0	0.006427061744	-0.5518274903	2.113379002	1.0
[RightHandRing3]
6	-29.37700081	0	0	-0.05093370005	1.961037159	-1.081350088	1.0
7	-29.37700081	0	0	-0.07808789611	2.172097445	-3.219077826	1.0
8	-29.37700081	0	0	-0.112565577	2.370031834	-5.238181114	1.0
[RightHandRing4]
6	-26.47500038	0	0	0	0	0	1.0
7	-26.47500038	0	0	0	0	0	1.0
8	-26.47500038	0	0	0	0	0	1.0
[RightHandMiddle1]
6	-95.32500458	0	0	-2.193964481	-5.303377151	21.67038345	1.0
7	-95.32500458	0	0	-2.262208223	-5.039117336	22.2402935	1.0
8	-95.32500458	0	0	-2.204544306	-4.879870892	21.80322266	1.0
[RightHandMiddle2]
6	-36.98199844	0	0	-0.0216902364	-1.117248535	2.95316267	1.0
7	-36.98199844	0	0	-0.002652530791	-1.025811434	2.032438278	1.0
8	-36.98199844	0	0	0.01547943521	-0.9309192896	1.079820156	1.0
[RightHandMiddle3]
6	-29.50900078	0	0	-0.006080543622	-0.1461869925	0.2565372586	1.0
7	-29.50900078	0	0	-0.00402710354	-0.01325297542	-1.078880191	1.0
8	-29.50900078	0	0	-0.00563458167	0.1237779781	-2.455380678	1.0
[RightHandMiddle4]
6	-28.3390007	0	0.0009999999311	0	0	0	1.0
7	-28.3390007	0	0.0009999999311	0	0	0	1.0
8	-28.3390007	0	0.0009999999311	0	0	0	1.0
[RightHandIndex1]
6	-91.08300018	-5.167999744	22.60099792	-0.5698356628	0.2500300407	7.767260551	1.0
7	-91.08300018	-5.167999744	22.60099792	-0.6472434998	0.6372781396	8.573188782	1.0
8	-91.08300018	-5.167999744	22.60099792	-0.6392348409	0.8775860071	8.476482391	1.0
[RightHandIndex2]
6	-36.76399994	0	0	0.01844027452	-0.7849075198	-0.02069194801	1.0
7	-36.76399994	0	0	0.01778632216	-0.7936250567	0.02516125888	1.0
8	-36.76399994	0	0	0.01811850257	-0.7840337753	0.0001288341446	1.0
[RightHandIndex3]
6	-28.83100128	0	0	-0.07092422247	1.258499265	-0.3672052026	1.0
7	-28.83100128	0	0	-0.0718684569	1.317398548	-0.9528371096	1.0
8	-28.83100128	0	0	-0.07327133417	1.380748749	-1.582821488	1.0
[RightHandIndex4]
6	-23.92700005	0	0	0	0	0	1.0
7	-23.92700005	0	0	0	0	0	1.0
8	-23.92700005	0	0	0	0	0	1.0
[RightHandThumb1]
6	-24.64799881	-15.72700024	26.82600021	8.885869026	4.419920921	3.333188534	1.0
7	-24.64799881	-15.72700024	26.82600021	9.272240639	6.247295856	4.51940012	1.0
8	-24.64799881	-15.72700024	26.82600021	10.1775322	7.069800377	5.842804909	1.0
[RightHandThumb2]
6	-32.29800034	-18.64699936	18.64699936	1.270503283	-21.60811043	-10.72091103	1.0
7	-32.29800034	-18.64699936	18.64699936	0.4724307358	-22.378479	-10.64877415	1.0
8	-32.29800034	-18.64699936	18.64699936	-0.3095981479	-22.47916794	-10.86364269	1.0
[RightHandThumb3]
6	-26.52600098	-15.31399918	15.31399918	2.424712658	-10.8002367	-0.2726015151	1.0
7	-26.52600098	-15.31399918	15.31399918	2.310755491	-10.46080208	-0.3626427054	1.0
8	-26.52600098	-15.31399918	15.31399918	2.224006891	-10.20240211	-0.4317662418	1.0
[RightHandThumb4]
6	-19.54599953	-11.28499985	11.28499985	0	0	0	1.0
7	-19.54599953	-11.28499985	11.28499985	0	0	0	1.0
8	-19.54599953	-11.28499985	11.28499985	0	0	0	1.0
[LeftUpLeg]
6	82.07800293	-67.51699829	-15.99599934	-37.54969406	3.837304592	0.9858047366	1.0
7	82.07800293	-67.51699829	-15.99599934	-37.06874466	4.438328743	0.6740295291	1.0
8	82.07800293	-67.51699829	-15.99599934	-35.88042068	4.186843395	-0.3383859992	1.0
[LeftLeg]
6	0	-443.7049866	2.845999956	16.13244057	4.477705956	4.165354729	1.0
7	0	-443.7049866	2.845999956	6.991756916	4.491987228	2.884681702	1.0
8	0	-443.7049866	2.845999956	10.83172798	6.198289394	3.290606737	1.0
[LeftFoot]
6	0	-444.2789917	-29.8219986	-7.663086891	0.5442623496	-2.497457981	1.0
7	0	-444.2789917	-29.8219986	-8.094058037	0.5208575726	-3.259624958	1.0
8	0	-444.2789917	-29.8219986	-4.835998058	1.747031331	-1.745228887	1.0
[LeftToeBase]
6	0	-87.28699493	107.1060028	-0.0551469624	-2.287582538e-05	-2.820448799e-06	1.0
7	0	-87.28699493	107.1060028	-1.253537655	-2.888786003e-05	-2.782587849e-08	1.0
8	0	-87.28699493	107.1060028	-3.244171381	1.169470215e-05	-4.144009381e-06	1.0
[RightUpLeg]
6	-82.07800293	-67.51699829	-15.99599934	11.89082623	-11.72485542	-0.1451812387	1.0
7	-82.07800293	-67.51699829	-15.99599934	16.5659008	-12.0958662	-2.737994909	1.0
8	-82.07800293	-67.51699829	-15.99599934	21.1417408	-10.67193222	-3.655881643	1.0
[RightLeg]
6	0	-443.7049866	2.861999989	8.228643417	8.610752106	1.851910591	1.0
7	0	-443.7049866	2.861999989	7.882909775	9.30136013	0.5638468862	1.0
8	0	-443.7049866	2.861999989	7.621495247	6.892679214	-3.721019506	1.0
[RightFoot]
6	0	-444.2770081	-29.83799934	-10.77088356	-0.6878718138	-3.93615818	1.0
7	0	-444.2770081	-29.83799934	-8.516486168	-0.5213209391	-3.270221233	1.0
8	0	-444.2770081	-29.83799934	2.04915452	0.2134527564	-0.4930482507	1.0
[RightToeBase]
6	0	-87.28699493	107.1060028	-14.4353075	-0.1782909632	-0.4485850334	1.0
7	0	-87.28699493	107.1060028	-20.29439735	1.480270657e-05	-5.033276011e-06	1.0
8	0	-87.28699493	107.1060028	-28.06476212	2.139548779	5.38298893	1.0
[EndOfFile]
